<?xml version="1.0" encoding="utf-8"?>
<svg id="master-artboard" viewBox="0 0 1400 980" version="1.1" xmlns="http://www.w3.org/2000/svg" x="0px" y="0px" style="enable-background:new 0 0 1400 980;" width="1400px" height="980px"><defs><style id="ee-google-fonts">@import url(https://fonts.googleapis.com/css?family=Rubik:300,300italic,400,400italic,500,500italic,700,700italic,900,900italic);</style></defs><rect id="ee-background" x="0" y="0" width="1400" height="980" style="fill: white; fill-opacity: 0; pointer-events: none;"/>








































<g transform="matrix(2.78656792640686, 0, 0, 2.78656792640686, -382.84982337200944, -117.31854700039244)"><metadata id="metadata24">
    
  </metadata><g id="g4">
    <text id="text6" y="515.00348" x="164.87489" style="white-space: pre;">
      <tspan style="font-size:50.5px;font-family:'HandelGothic BT';fill:#102a83" id="tspan8" font-size="50.5000" dy="0">u.a.a.</tspan>
    </text>
    <g id="g10">
      <path id="path12" style="fill:#ffcb00;fill-rule:evenodd" d="m 362.5773,272.7928 c -0.388,-10.118 3.536,-20.6753 9.0612,-29.2638 11.4417,-17.7869 22.839,-35.4994 34.1408,-53.357 14.5225,-22.9496 4.6287,-46.5687 -14.5972,-60.7908 0.388,10.118 -3.536,20.6753 -9.0612,29.2638 -11.4417,17.7869 -22.839,35.4994 -34.1408,53.357 -14.5225,22.9496 -4.6287,46.5687 14.5972,60.7908 z"/>
      <path id="path14" style="fill:#cf1125;fill-rule:evenodd" d="m 398.9547,307.9709 c -0.388,-10.118 3.5361,-20.6753 9.0612,-29.2638 11.4417,-17.7868 22.839,-35.4994 34.1408,-53.3569 14.5225,-22.9496 4.6287,-46.5688 -14.5972,-60.7909 0.388,10.1181 -3.536,20.6754 -9.0612,29.2639 -11.4417,17.7868 -22.839,35.4994 -34.1408,53.3569 -14.5224,22.9496 -4.6287,46.5688 14.5972,60.7908 z"/>
      <path id="path16" style="fill:#102a83;fill-rule:evenodd" d="m 200.7009,58.9194 c 19.5322,-0.0823 33.9265,17.2278 33.8955,32.9218 l -0.3442,166.7392 c -0.0801,39.2355 37.9433,90.4978 85.8804,90.5897 l 62.7707,0.1208 c -0.3003,10.0013 -14.7128,30.0059 -33.4402,30.0059 l -28.5032,0 c -66.1418,0 -120.259,-54.1161 -120.259,-120.2589 l 0,-200.1185 z m 390.5982,320.3764 c -19.5322,0.0823 -33.9265,-17.2278 -33.8955,-32.9218 l 0.3442,-166.7392 C 557.8279,140.3993 519.8045,89.137 471.8674,89.0451 L 409.0967,88.9243 C 409.397,78.923 423.8095,58.9184 442.5369,58.9184 l 28.5032,0 c 66.1418,0 120.259,54.1161 120.259,120.2589 l 0,200.1185 z"/>
      <path id="path18" style="fill:#d9dadb;fill-rule:evenodd" d="m 366.2495,384.3055 55.7034,0 c 37.4398,0 36.5303,-29.4181 36.5303,-39.3403 l -63.3532,0 -1.0219,0 c 0,17.09 -12.7856,36.8093 -27.8586,39.3403 z M 222.5429,58.9194 l 54.6784,0 c 18.9455,0 33.4007,14.6572 33.4007,34.8928 l 0,153.8082 c 0,38.0362 31.9213,73.8108 67.2866,92.1716 -75.1213,6.9358 -134.089,-14.0063 -134.089,-95.8506 l 0,-143.9437 c 0,-15.4204 -5.8456,-32.2741 -21.2767,-41.0783 z m 206.1705,-2.6304 -55.7034,0 c -37.4399,0 -36.5303,29.4181 -36.5303,39.3402 l 63.3532,0 1.0218,0 c 0,-17.0899 12.7857,-36.8092 27.8587,-39.3402 z m 139.6898,323.0078 -54.6784,0 c -18.9455,0 -33.4007,-14.6572 -33.4007,-34.8927 l 0,-153.8082 c 0,-38.0363 -31.9213,-73.8108 -67.2865,-92.1716 75.1213,-6.9358 134.0889,14.0063 134.0889,95.8506 l 0,143.9437 c 0,15.4204 5.8456,32.2741 21.2767,41.0782 z"/>
    </g>
  </g></g><path d="M 145.21934509277344 839.3700561523438" style="fill: rgb(255, 255, 255); fill-opacity: 1; stroke: rgb(255, 255, 255); stroke-opacity: 1; stroke-width: 10; paint-order: fill;"/></svg>